<svg width="131" height="121" viewBox="0 0 131 121" fill="none" xmlns="http://www.w3.org/2000/svg">
<path d="M109.946 90.3078C94.5517 83.0522 79.1279 75.8589 63.7637 68.541C55.47 64.5891 44.6584 59.1474 40.4519 50.0529C43.0653 50.5454 45.7145 50.8633 48.3637 51.0191C55.6789 51.4492 63.2864 49.5356 65.7745 41.4759C67.8091 34.8935 65.2494 27.2327 59.3663 23.8792C53.1072 20.3075 44.8016 21.6227 39.7001 26.7652C35.5235 30.9727 33.6142 37.1873 33.9423 43.1963C31.7466 42.4545 29.8611 41.694 28.5246 41.052C14.2106 34.1579 3.67938 19.3725 5.26652 2.41157C5.56485 -0.779895 0.791518 -0.761195 0.493185 2.41157C-1.15361 20.002 9.35369 36.296 23.9541 44.2435C27.4506 46.1446 31.132 47.6282 34.9149 48.7252C37.0569 55.7876 42.1882 61.2293 47.958 65.3246C56.1144 71.1216 65.6193 74.8491 74.5634 79.0691L107.535 94.6088C110.316 95.9178 112.744 91.623 109.946 90.3016V90.3078ZM38.6858 42.735C38.4113 35.9594 41.8302 28.9531 48.4831 27.2389C54.3483 25.7242 60.9057 28.8035 61.6336 35.5417C62.9701 47.89 49.5392 47.3539 38.8708 44.6486C38.7813 44.0253 38.7156 43.3895 38.6918 42.735H38.6858Z" fill="#704FE6"/>
<path d="M129.976 95.843C120.134 86.2513 110.682 76.2317 101.646 65.8108C99.5756 63.4297 96.2104 66.964 98.2689 69.3389C106.428 78.741 114.924 87.8171 123.741 96.5474C110.996 101.135 99.0088 107.724 88.2031 116.182C85.7747 118.084 88.1494 122.416 90.6137 120.49C102.201 111.42 115.095 104.489 128.926 100.007C130.578 99.4708 131.336 97.1645 129.982 95.8368L129.976 95.843Z" fill="#704FE6"/>
</svg>
