<svg width="50" height="55" viewBox="0 0 50 55" fill="none" xmlns="http://www.w3.org/2000/svg">
<g clip-path="url(#clip0_183_96)">
<path d="M22.2973 21.1482C22.3357 19.9635 23.7423 19.5866 24.368 20.5933L28.0382 26.5032C28.8456 27.8022 29.9118 28.8933 31.1524 29.6901C32.393 30.4868 33.7738 30.9673 35.1855 31.0935L41.6032 31.6693C42.6971 31.7676 43.1117 33.3149 42.2135 33.9471L36.9405 37.6554C35.7815 38.4712 34.8265 39.5783 34.1512 40.889C33.4759 42.1998 33.0988 43.6781 33.0499 45.2068L32.8254 52.1567C32.8181 52.4159 32.7354 52.6619 32.5892 52.8599C32.4429 53.0578 32.2406 53.1975 32.011 53.259C31.7815 53.3206 31.5364 53.3007 31.3108 53.2024C31.0852 53.1041 30.8905 52.9323 30.7547 52.7116L27.0844 46.8017C26.2774 45.503 25.2117 44.412 23.9717 43.6151C22.7316 42.8182 21.3514 42.3373 19.9402 42.2106L13.5195 41.6356C13.2802 41.6153 13.0494 41.5137 12.86 41.3453C12.6705 41.1768 12.5321 40.9502 12.4644 40.6977C12.3967 40.4451 12.4033 40.1796 12.4832 39.939C12.563 39.6984 12.7121 39.495 12.9091 39.3578L18.1821 35.6495C19.3409 34.8342 20.2958 33.7276 20.9713 32.4174C21.6467 31.1073 22.0241 29.6296 22.0736 28.1014L22.2973 21.1482ZM6.10019 7.34202C6.10495 7.18663 6.1548 7.03916 6.24266 6.92056C6.33053 6.80196 6.45193 6.71827 6.58963 6.68137C6.72733 6.64448 6.87432 6.65625 7.00971 6.71503C7.1451 6.77381 7.26201 6.87659 7.34382 7.00879L9.54581 10.554C10.5289 12.1341 12.1156 13.1538 13.8331 13.3092L17.6849 13.6544C17.8284 13.667 17.9667 13.7282 18.0803 13.8294C18.1938 13.9306 18.2767 14.0666 18.3173 14.218C18.3579 14.3695 18.3541 14.5287 18.3064 14.6731C18.2586 14.8175 18.1695 14.9397 18.0515 15.0224L14.8883 17.2472C14.1929 17.7364 13.6198 18.4005 13.2144 19.1867C12.8091 19.973 12.5826 20.8598 12.553 21.7769L12.4186 25.9482C12.4139 26.1036 12.364 26.251 12.2761 26.3696C12.1883 26.4882 12.0669 26.5719 11.9292 26.6088C11.7915 26.6457 11.6445 26.6339 11.5091 26.5752C11.3737 26.5164 11.2568 26.4136 11.175 26.2814L8.973 22.7361C8.48878 21.9567 7.84925 21.3019 7.10508 20.8237C6.36092 20.3455 5.53258 20.057 4.68569 19.981L0.833865 19.6358C0.690389 19.6232 0.55206 19.562 0.438534 19.4608C0.325008 19.3596 0.242059 19.2236 0.201473 19.0722C0.160887 18.9207 0.164728 18.7615 0.212452 18.6171C0.260175 18.4727 0.349352 18.3505 0.467313 18.2678L3.63052 16.043C4.32595 15.5538 4.89905 14.8897 5.3044 14.1035C5.70975 13.3172 5.93621 12.4304 5.96584 11.5133L6.10019 7.34202ZM26.5048 -1.85853C26.5093 -1.96105 26.5431 -2.058 26.6017 -2.13588C26.6603 -2.21376 26.7406 -2.2687 26.8316 -2.29308C26.9226 -2.31745 27.0196 -2.31004 27.1093 -2.27188C27.1989 -2.23372 27.2768 -2.1667 27.3319 -2.08014L28.7993 0.281154C29.4542 1.33699 30.5134 2.01762 31.6601 2.11962L34.226 2.35025C34.3207 2.36 34.4117 2.40145 34.4863 2.46884C34.5609 2.53624 34.6154 2.62622 34.6422 2.72628C34.669 2.82635 34.6668 2.93152 34.6359 3.02718C34.605 3.12284 34.5469 3.20423 34.4697 3.26003L32.3629 4.74271C31.8987 5.06896 31.5162 5.51202 31.2457 6.0367C30.9752 6.56137 30.8242 7.15323 30.8046 7.76527L30.7145 10.5439C30.71 10.6464 30.6762 10.7434 30.6176 10.8213C30.559 10.8991 30.4787 10.9541 30.3877 10.9785C30.2967 11.0028 30.1997 10.9954 30.11 10.9573C30.0203 10.9191 29.9425 10.8521 29.8874 10.7655L28.42 8.40423C28.0971 7.88395 27.6704 7.44689 27.1738 7.12775C26.6772 6.80862 26.1244 6.6162 25.5592 6.56577L22.9964 6.33432C22.9016 6.32457 22.8106 6.28312 22.736 6.21573C22.6615 6.14834 22.607 6.05835 22.5802 5.95829C22.5533 5.85823 22.5555 5.75305 22.5864 5.6574C22.6173 5.56174 22.6754 5.48035 22.7526 5.42454L24.8594 3.94186C25.8015 3.28017 26.3784 2.16117 26.4177 0.919305L26.5057 -1.8552L26.5048 -1.85853Z" fill="#FFD25D"/>
</g>
<defs>
<clipPath id="clip0_183_96">
<rect width="50" height="55" fill="white"/>
</clipPath>
</defs>
</svg>
