<svg width="61" height="57" viewBox="0 0 61 57" fill="none" xmlns="http://www.w3.org/2000/svg">
<circle cx="2.5" cy="2.5" r="2.5" fill="#FFD25D"/>
<circle cx="2.5" cy="28.5" r="2.5" fill="#FFD25D"/>
<circle cx="16.5" cy="41.5" r="2.5" fill="#FFD25D"/>
<circle cx="58.5" cy="41.5" r="2.5" fill="#FFD25D"/>
<circle cx="44.5" cy="41.5" r="2.5" fill="#FFD25D"/>
<circle cx="30.5" cy="41.5" r="2.5" fill="#FFD25D"/>
<circle cx="2.5" cy="41.5" r="2.5" fill="#FFD25D"/>
<circle cx="44.5" cy="54.5" r="2.5" fill="#FFD25D"/>
<circle cx="30.5" cy="54.5" r="2.5" fill="#FFD25D"/>
<circle cx="16.5" cy="54.5" r="2.5" fill="#FFD25D"/>
<circle cx="2.5" cy="54.5" r="2.5" fill="#FFD25D"/>
<circle cx="58.5" cy="28.5" r="2.5" fill="#FFD25D"/>
<circle cx="44.5" cy="28.5" r="2.5" fill="#FFD25D"/>
<circle cx="30.5" cy="28.5" r="2.5" fill="#FFD25D"/>
<circle cx="16.5" cy="28.5" r="2.5" fill="#FFD25D"/>
<circle cx="58.5" cy="15.5" r="2.5" fill="#FFD25D"/>
<circle cx="44.5" cy="15.5" r="2.5" fill="#FFD25D"/>
<circle cx="30.5" cy="15.5" r="2.5" fill="#FFD25D"/>
<circle cx="16.5" cy="15.5" r="2.5" fill="#FFD25D"/>
<circle cx="2.5" cy="15.5" r="2.5" fill="#FFD25D"/>
<circle cx="58.5" cy="2.5" r="2.5" fill="#FFD25D"/>
<circle cx="44.5" cy="2.5" r="2.5" fill="#FFD25D"/>
<circle cx="30.5" cy="2.5" r="2.5" fill="#FFD25D"/>
<circle cx="16.5" cy="2.5" r="2.5" fill="#FFD25D"/>
</svg>
