<svg width="130" height="58" viewBox="0 0 130 58" fill="none" xmlns="http://www.w3.org/2000/svg">
<ellipse cx="10.71" cy="27.5411" rx="10.71" ry="27.5411" transform="matrix(0.940865 0.338781 -0.412896 0.910778 22.7432 0)" fill="#FFD25D"/>
<ellipse cx="10.71" cy="27.5411" rx="10.71" ry="27.5411" transform="matrix(0.940865 0.338781 -0.412896 0.910778 37.5984 0)" fill="#FFD25D"/>
<ellipse cx="10.71" cy="27.5411" rx="10.71" ry="27.5411" transform="matrix(0.940865 0.338781 -0.412896 0.910778 69.8921 0.575615)" fill="#FFD25D"/>
<path d="M94.1747 32.9161C87.8944 46.7696 78.2421 56.3577 72.6158 54.3318C66.9895 52.3059 67.5197 39.4332 73.8001 25.5798C80.0805 11.7263 89.7327 2.13821 95.359 4.16409C100.985 6.18998 100.455 19.0627 94.1747 32.9161Z" fill="#FFD25D"/>
<path d="M124.92 33.0515C118.639 46.9049 108.987 56.493 103.361 54.4671C97.7345 52.4413 98.2647 39.5685 104.545 25.7151C110.825 11.8617 120.478 2.27354 126.104 4.29942C131.73 6.32531 131.2 19.198 124.92 33.0515Z" fill="#FFD25D"/>
<path d="M109.419 33.0515C103.138 46.9049 93.4861 56.493 87.8598 54.4671C82.2335 52.4413 82.7637 39.5685 89.0441 25.7151C95.3244 11.8617 104.977 2.27354 110.603 4.29942C116.229 6.32531 115.699 19.198 109.419 33.0515Z" fill="#FFD25D"/>
<ellipse cx="10.71" cy="27.5411" rx="10.71" ry="27.5411" transform="matrix(0.940865 0.338781 -0.412896 0.910778 53.0994 0.575615)" fill="#FFD25D"/>
</svg>
