<svg width="89" height="89" viewBox="0 0 89 89" fill="none" xmlns="http://www.w3.org/2000/svg">
<path d="M80.7705 52.6049C84.909 34.0602 74.0065 15.3673 56.0522 9.32417C51.4479 7.7726 46.5292 7.33057 41.6935 7.4789C36.668 7.63317 31.1619 7.92984 26.3737 9.56744C16.8655 12.8189 12.2731 24.0299 11.036 33.3186C8.74573 50.4896 21.897 67.545 39.0206 70.0548C47.6002 71.3127 56.6366 68.9364 63.279 63.3027C70.046 57.5651 72.8524 48.6206 71.1703 39.9876C69.2301 30.0256 61.6681 23.8846 52.6583 20.2118C45.1705 17.1591 35.6534 15.5571 28.8212 20.9861C21.5677 26.7504 21.5795 37.3354 24.4305 45.381C27.5485 54.1772 34.3807 62.5135 44.6305 61.1044C52.4596 60.0275 62.4513 52.9757 61.6088 44.1172C61.1578 39.3973 57.675 35.9381 54.1239 33.1732C50.3236 30.2154 45.9952 27.3229 40.9489 27.759C36.846 28.1121 33.0724 30.6812 32.1349 34.8375C31.2865 38.5992 33.0457 42.3521 35.3122 45.2564C37.6589 48.2617 40.9281 50.988 44.8293 51.4924C48.6593 51.9848 52.0947 49.4394 52.0769 45.4137C52.0561 40.5394 47.5853 38.172 43.6545 36.5938C40.5662 35.3537 39.2698 40.3822 42.3373 41.6134C43.8711 42.2304 46.2058 43.0314 46.7369 44.7788C47.2501 46.4668 45.9952 46.5736 44.6691 46.1761C42.0436 45.387 39.8453 43.0225 38.4539 40.7501C36.9617 38.3085 36.1844 34.8879 39.3914 33.4046C42.9425 31.7611 46.7992 34.173 49.6056 36.2111C52.3676 38.2195 56.2272 41.0349 56.4616 44.7521C56.6811 48.2112 53.6344 51.255 51.0029 53.0736C48.3181 54.9278 45.0785 56.242 41.7707 56.0907C37.7004 55.9038 34.5023 53.2012 32.3574 49.9171C28.7114 44.3338 26.3766 36.3772 28.6728 29.8476C31.0729 23.0302 38.356 21.7664 44.6661 23.1132C51.5162 24.5728 59.4401 28.0616 63.3235 34.1463C66.8271 39.6346 67.6133 46.9919 64.8157 52.952C58.8142 65.7324 41.5037 68.1472 30.2036 61.4604C24.7509 58.2326 20.3395 53.1923 17.8979 47.339C15.1775 40.8153 15.5097 33.8526 17.8267 27.2577C19.132 23.5434 20.9921 19.1379 24.0953 16.5747C27.1302 14.0679 31.3399 13.5398 35.1253 13.1452C42.6547 12.3561 50.377 12.19 57.4139 15.394C70.663 21.4282 78.7235 35.6919 75.9823 50.1455C73.3924 63.81 62.8755 73.9352 49.1399 75.9822C36.7956 77.8215 21.3422 73.1312 14.6464 61.9232C13.0444 59.2413 12.0921 56.1856 12.6291 53.0499C13.1868 49.7836 8.17317 48.4308 7.6095 51.7327C6.1054 60.514 11.5136 68.165 18.248 73.2291C25.1188 78.4 33.639 81.1887 42.2068 81.5121C60.3954 82.1974 76.7477 70.6185 80.7675 52.5989L80.7705 52.6049Z" fill="#DEC8FE"/>
</svg>
