<svg width="64" height="64" viewBox="0 0 64 64" fill="none" xmlns="http://www.w3.org/2000/svg">
<path d="M3.17627 21.8348C5.34791 12.5767 12.5767 5.34791 21.8348 3.17628C28.521 1.60791 35.479 1.60791 42.1653 3.17628C51.4233 5.34791 58.652 12.5767 60.8237 21.8348C62.392 28.521 62.392 35.479 60.8237 42.1654C58.652 51.4234 51.4233 58.6521 42.1653 60.8237C35.479 62.3921 28.521 62.3921 21.8348 60.8237C12.5767 58.6521 5.34791 51.4234 3.17627 42.1654C1.60791 35.479 1.60791 28.521 3.17627 21.8348Z" fill="white" stroke="#CCBDF4" stroke-width="3"/>
<path d="M23.667 35.3333L32.0003 27L40.3337 35.3333" fill="white"/>
<path d="M23.667 35.3333L32.0003 27L40.3337 35.3333" stroke="#CCBDF4" stroke-width="3" stroke-linecap="round" stroke-linejoin="round"/>
</svg>
